<svg width="907" height="156" viewBox="0 0 907 156" fill="none" xmlns="http://www.w3.org/2000/svg">
<rect x="2.5" y="2.5" width="902" height="151" stroke="white" stroke-width="5"/>
<rect x="14" y="14" width="575" height="128" fill="white"/>
<path d="M44.528 101V56.2H50.16V101H44.528ZM63.2155 101V56.2H68.4635L86.0635 82.76L103.536 56.2H108.784V101H103.152V66.76L88.3035 89.096H83.6955L68.8475 66.696V101H63.2155ZM121.841 101V56.2H137.009C140.379 56.2 143.302 56.8187 145.777 58.056C148.294 59.2933 150.235 61.0427 151.601 63.304C152.966 65.5227 153.649 68.168 153.649 71.24C153.649 74.312 152.966 76.9787 151.601 79.24C150.235 81.4587 148.294 83.1867 145.777 84.424C143.302 85.6613 140.379 86.28 137.009 86.28H127.473V101H121.841ZM127.473 81.032H136.881C144.219 81.032 147.889 77.7893 147.889 71.304C147.889 64.8187 144.219 61.576 136.881 61.576H127.473V81.032ZM157.276 101L175.708 56.2H180.956L199.388 101H193.436L189.212 90.824H167.388L163.292 101H157.276ZM169.564 85.576H187.1L178.332 64.072L169.564 85.576ZM226.868 101.832C223.583 101.832 220.553 101.256 217.78 100.104C215.007 98.952 212.596 97.352 210.548 95.304C208.543 93.2133 206.985 90.76 205.876 87.944C204.767 85.0853 204.212 81.9707 204.212 78.6C204.212 75.2293 204.767 72.136 205.876 69.32C206.985 66.4613 208.543 64.008 210.548 61.96C212.596 59.8693 215.007 58.248 217.78 57.096C220.553 55.944 223.583 55.368 226.868 55.368C230.409 55.368 233.652 56.0293 236.596 57.352C239.583 58.632 242.121 60.488 244.212 62.92C246.345 65.3093 247.903 68.1467 248.884 71.432H242.868C241.716 68.1893 239.711 65.6507 236.852 63.816C234.036 61.9387 230.772 61 227.06 61C223.732 61 220.788 61.7467 218.228 63.24C215.668 64.7333 213.641 66.8027 212.148 69.448C210.697 72.0933 209.972 75.144 209.972 78.6C209.972 82.056 210.697 85.1067 212.148 87.752C213.641 90.3973 215.668 92.4667 218.228 93.96C220.788 95.4533 223.732 96.2 227.06 96.2C230.857 96.2 234.228 95.2187 237.172 93.256C240.116 91.2933 242.164 88.6267 243.316 85.256H249.268C248.372 88.584 246.836 91.4853 244.66 93.96C242.527 96.4347 239.924 98.376 236.852 99.784C233.823 101.149 230.495 101.832 226.868 101.832ZM270.094 101V61.576H254.926V56.2H290.83V61.576H275.726V101H270.094ZM316.216 101V56.2H321.464L339.064 82.76L356.536 56.2H361.784V101H356.152V66.76L341.304 89.096H336.696L321.848 66.696V101H316.216ZM369.401 101L387.833 56.2H393.081L411.513 101H405.561L401.337 90.824H379.513L375.417 101H369.401ZM381.689 85.576H399.225L390.457 64.072L381.689 85.576ZM452.241 101H445.457L429.265 79.176L424.593 83.272V101H418.833V55.304H424.593V77.832C425.873 76.3813 427.174 74.9307 428.497 73.48C429.82 72.0293 431.142 70.5787 432.465 69.128L444.817 55.304H451.537L433.425 75.208L452.241 101ZM483.994 101H458.458V55.304H483.994V60.36H464.218V74.632H482.842V79.624H464.218V95.944H483.994V101ZM506.628 55.304C510.426 55.304 513.541 55.7947 515.973 56.776C518.447 57.7147 520.282 59.144 521.477 61.064C522.671 62.984 523.269 65.3947 523.269 68.296C523.269 70.728 522.821 72.7547 521.925 74.376C521.029 75.9973 519.877 77.2987 518.469 78.28C517.103 79.2187 515.653 79.9653 514.117 80.52L526.661 101H519.941L508.869 82.12H499.781V101H494.021V55.304H506.628ZM506.309 60.296H499.781V77.256H506.628C509.103 77.256 511.13 76.936 512.709 76.296C514.287 75.6133 515.439 74.632 516.165 73.352C516.933 72.072 517.317 70.472 517.317 68.552C517.317 66.5467 516.911 64.9467 516.101 63.752C515.333 62.5573 514.138 61.6827 512.517 61.128C510.895 60.5733 508.826 60.296 506.309 60.296ZM559.753 88.776C559.753 91.5067 559.092 93.832 557.769 95.752C556.446 97.6293 554.548 99.08 552.073 100.104C549.641 101.128 546.761 101.64 543.433 101.64C541.726 101.64 540.084 101.555 538.505 101.384C536.969 101.213 535.561 100.979 534.281 100.68C533.001 100.339 531.87 99.9333 530.889 99.464V93.96C532.425 94.6427 534.324 95.2613 536.585 95.816C538.889 96.3707 541.257 96.648 543.689 96.648C545.95 96.648 547.849 96.3493 549.385 95.752C550.921 95.1547 552.073 94.3013 552.841 93.192C553.609 92.0827 553.993 90.7813 553.993 89.288C553.993 87.7947 553.673 86.536 553.033 85.512C552.393 84.488 551.284 83.5493 549.705 82.696C548.169 81.8 546.014 80.8613 543.241 79.88C541.278 79.1547 539.55 78.3867 538.057 77.576C536.606 76.7227 535.39 75.7627 534.409 74.696C533.428 73.6293 532.681 72.4133 532.169 71.048C531.7 69.6827 531.465 68.104 531.465 66.312C531.465 63.88 532.084 61.8107 533.321 60.104C534.558 58.3547 536.265 57.0107 538.441 56.072C540.66 55.1333 543.198 54.664 546.057 54.664C548.574 54.664 550.878 54.8987 552.969 55.368C555.06 55.8373 556.958 56.456 558.665 57.224L556.873 62.152C555.294 61.4693 553.566 60.8933 551.689 60.424C549.854 59.9547 547.934 59.72 545.929 59.72C544.009 59.72 542.409 59.9973 541.129 60.552C539.849 61.1067 538.889 61.896 538.249 62.92C537.609 63.9013 537.289 65.0533 537.289 66.376C537.289 67.912 537.609 69.192 538.249 70.216C538.889 71.24 539.934 72.1573 541.385 72.968C542.836 73.7787 544.798 74.6533 547.273 75.592C549.961 76.5733 552.222 77.64 554.057 78.792C555.934 79.9013 557.342 81.2453 558.281 82.824C559.262 84.4027 559.753 86.3867 559.753 88.776Z" fill="black"/>
<path d="M619.736 101V56.2H650.456V66.632H632.536V73.16H648.728V83.528H632.536V90.44H651.16V101H619.736ZM671.215 101L654.383 56.2H668.271L673.519 70.984L677.679 82.632L681.839 70.984L687.087 56.2H700.847L684.015 101H671.215ZM705.924 101V56.2H736.644V66.632H718.724V73.16H734.916V83.528H718.724V90.44H737.347V101H705.924ZM744.986 101V56.2H755.546L772.57 78.92V56.2H785.306V101H774.81L757.786 78.152V101H744.986ZM805.549 101V68.168H791.917V56.2H832.045V68.168H818.413V101H805.549ZM854.613 101.96C848.81 101.96 844.266 100.595 840.981 97.864C837.695 95.0907 836.053 91.2933 836.053 86.472H848.533C848.533 88.1787 849.045 89.5227 850.069 90.504C851.135 91.4427 852.586 91.912 854.421 91.912C855.999 91.912 857.237 91.6133 858.133 91.016C859.029 90.376 859.477 89.5013 859.477 88.392C859.477 85.9173 856.789 84.1467 851.413 83.08C841.386 81.16 836.373 76.4453 836.373 68.936C836.373 64.712 837.887 61.384 840.917 58.952C843.989 56.4773 848.17 55.24 853.461 55.24C857.13 55.24 860.309 55.8587 862.997 57.096C865.727 58.3333 867.818 60.104 869.269 62.408C870.762 64.6693 871.509 67.336 871.509 70.408H859.349C859.349 68.7013 858.858 67.4 857.877 66.504C856.895 65.608 855.509 65.16 853.717 65.16C852.223 65.16 851.029 65.48 850.133 66.12C849.237 66.7173 848.789 67.5707 848.789 68.68C848.789 69.832 849.386 70.792 850.581 71.56C851.775 72.328 853.802 73.032 856.661 73.672C862.122 74.8667 866.09 76.616 868.565 78.92C871.082 81.1813 872.341 84.168 872.341 87.88C872.341 92.2747 870.783 95.7307 867.669 98.248C864.554 100.723 860.202 101.96 854.613 101.96Z" fill="white"/>
</svg>
